<?xml version="1.0" encoding="UTF-8" standalone="no"?>
<svg
   viewBox="0 0 512 512"
   version="1.1"
   id="svg1"
   sodipodi:docname="expand_solid_fontawesome.svg"
   inkscape:version="1.4 (e7c3feb100, 2024-10-09)"
   width="512"
   height="512"
   xmlns:inkscape="http://www.inkscape.org/namespaces/inkscape"
   xmlns:sodipodi="http://sodipodi.sourceforge.net/DTD/sodipodi-0.dtd"
   xmlns="http://www.w3.org/2000/svg"
   xmlns:svg="http://www.w3.org/2000/svg">
  <defs
     id="defs1" />
  <sodipodi:namedview
     id="namedview1"
     pagecolor="#ffffff"
     bordercolor="#000000"
     borderopacity="0.25"
     inkscape:showpageshadow="2"
     inkscape:pageopacity="0.0"
     inkscape:pagecheckerboard="true"
     inkscape:deskcolor="#d1d1d1"
     inkscape:zoom="1.8984375"
     inkscape:cx="223.86831"
     inkscape:cy="256"
     inkscape:window-width="2192"
     inkscape:window-height="1173"
     inkscape:window-x="1920"
     inkscape:window-y="0"
     inkscape:window-maximized="1"
     inkscape:current-layer="svg1" />
  <!--!Font Awesome Free 6.7.2 by @fontawesome - https://fontawesome.com License - https://fontawesome.com/license/free Copyright 2024 Fonticons, Inc.-->
  <path
     d="M 64,32 C 46.3,32 32,46.3 32,64 v 96 c 0,17.7 14.3,32 32,32 17.7,0 32,-14.3 32,-32 V 96 h 64 c 17.7,0 32,-14.3 32,-32 0,-17.7 -14.3,-32 -32,-32 z m 32,320 c 0,-17.7 -14.3,-32 -32,-32 -17.7,0 -32,14.3 -32,32 v 96 c 0,17.7 14.3,32 32,32 h 96 c 17.7,0 32,-14.3 32,-32 0,-17.7 -14.3,-32 -32,-32 H 96 Z M 352,32 c -17.7,0 -32,14.3 -32,32 0,17.7 14.3,32 32,32 h 64 v 64 c 0,17.7 14.3,32 32,32 17.7,0 32,-14.3 32,-32 V 64 C 480,46.3 465.7,32 448,32 Z m 128,320 c 0,-17.7 -14.3,-32 -32,-32 -17.7,0 -32,14.3 -32,32 v 64 h -64 c -17.7,0 -32,14.3 -32,32 0,17.7 14.3,32 32,32 h 96 c 17.7,0 32,-14.3 32,-32 z"
     id="path1"
     style="fill:#ffffff" />
</svg>
