<?xml version="1.0" encoding="UTF-8" standalone="no"?>
<svg
   viewBox="0 0 512 512"
   version="1.1"
   id="svg1"
   sodipodi:docname="flag_solid.svg"
   width="512"
   height="512"
   inkscape:version="1.4 (e7c3feb100, 2024-10-09)"
   xmlns:inkscape="http://www.inkscape.org/namespaces/inkscape"
   xmlns:sodipodi="http://sodipodi.sourceforge.net/DTD/sodipodi-0.dtd"
   xmlns="http://www.w3.org/2000/svg"
   xmlns:svg="http://www.w3.org/2000/svg">
  <defs
     id="defs1" />
  <sodipodi:namedview
     id="namedview1"
     pagecolor="#ffffff"
     bordercolor="#000000"
     borderopacity="0.25"
     inkscape:showpageshadow="2"
     inkscape:pageopacity="0.0"
     inkscape:pagecheckerboard="0"
     inkscape:deskcolor="#d1d1d1"
     inkscape:zoom="1.8984375"
     inkscape:cx="223.86831"
     inkscape:cy="256"
     inkscape:window-width="2192"
     inkscape:window-height="1173"
     inkscape:window-x="1920"
     inkscape:window-y="0"
     inkscape:window-maximized="1"
     inkscape:current-layer="svg1" />
  <!--!Font Awesome Free 6.7.2 by @fontawesome - https://fontawesome.com License - https://fontawesome.com/license/free Copyright 2024 Fonticons, Inc.-->
  <path
     d="M 96,32 C 96,14.3 81.7,0 64,0 46.3,0 32,14.3 32,32 v 32 304 112 c 0,17.7 14.3,32 32,32 17.7,0 32,-14.3 32,-32 V 352 l 64.3,-16.1 c 41.1,-10.3 84.6,-5.5 122.5,13.4 44.2,22.1 95.5,24.8 141.7,7.4 l 34.7,-13 C 471.7,339 480,327.1 480,313.7 V 66 C 480,43 455.8,28 435.2,38.3 l -9.6,4.8 C 379.3,66.3 324.8,66.3 278.5,43.1 243.4,25.5 203.1,21.1 165,30.6 L 96,48 Z"
     id="path1"
     style="fill:#ffffff" />
</svg>
