<?xml version="1.0" encoding="UTF-8" standalone="no"?>
<svg
   viewBox="0 0 512 512"
   version="1.1"
   id="svg1"
   sodipodi:docname="hourglass_end_solid_fontawesome.svg"
   inkscape:version="1.4 (e7c3feb100, 2024-10-09)"
   width="512"
   height="512"
   xmlns:inkscape="http://www.inkscape.org/namespaces/inkscape"
   xmlns:sodipodi="http://sodipodi.sourceforge.net/DTD/sodipodi-0.dtd"
   xmlns="http://www.w3.org/2000/svg"
   xmlns:svg="http://www.w3.org/2000/svg">
  <defs
     id="defs1" />
  <sodipodi:namedview
     id="namedview1"
     pagecolor="#ffffff"
     bordercolor="#000000"
     borderopacity="0.25"
     inkscape:showpageshadow="2"
     inkscape:pageopacity="0.0"
     inkscape:pagecheckerboard="0"
     inkscape:deskcolor="#d1d1d1"
     inkscape:zoom="0.33559951"
     inkscape:cx="232.41989"
     inkscape:cy="977.35543"
     inkscape:window-width="2192"
     inkscape:window-height="1173"
     inkscape:window-x="1920"
     inkscape:window-y="0"
     inkscape:window-maximized="1"
     inkscape:current-layer="svg1" />
  <!--!Font Awesome Free 6.7.2 by @fontawesome - https://fontawesome.com License - https://fontawesome.com/license/free Copyright 2024 Fonticons, Inc.-->
  <path
     d="m 95.95,0 c -17.7,0 -32,14.3 -32,32 0,17.7 14.3,32 32,32 v 11 c 0,42.4 16.9,83.1 46.9,113.1 l 67.8,67.9 -67.8,67.9 c -30,30 -46.9,70.7 -46.9,113.1 v 11 c -17.7,0 -32,14.3 -32,32 0,17.7 14.3,32 32,32 h 32 256 32 c 17.7,0 32,-14.3 32,-32 0,-17.7 -14.3,-32 -32,-32 v -11 c 0,-42.4 -16.9,-83.1 -46.9,-113.1 l -67.8,-67.9 67.9,-67.9 c 30,-30 46.9,-70.7 46.9,-113.1 V 64 c 17.7,0 32,-14.3 32,-32 0,-17.7 -14.3,-32 -32,-32 h -32.1 -256 z m 64,75 V 64 h 192 v 11 c 0,25.5 -10.1,49.9 -28.1,67.9 l -67.9,67.8 -67.9,-67.9 c -18,-17.9 -28.1,-42.4 -28.1,-67.8 z"
     id="path1"
     style="fill:#ffffff" />
</svg>
