<?xml version="1.0" encoding="UTF-8" standalone="no"?>
<svg
   viewBox="0 0 512 512"
   version="1.1"
   id="svg1"
   sodipodi:docname="person_walking_solid_fontawesome.svg"
   width="512"
   height="512"
   inkscape:version="1.4 (e7c3feb100, 2024-10-09)"
   xmlns:inkscape="http://www.inkscape.org/namespaces/inkscape"
   xmlns:sodipodi="http://sodipodi.sourceforge.net/DTD/sodipodi-0.dtd"
   xmlns="http://www.w3.org/2000/svg"
   xmlns:svg="http://www.w3.org/2000/svg">
  <defs
     id="defs1" />
  <sodipodi:namedview
     id="namedview1"
     pagecolor="#ffffff"
     bordercolor="#000000"
     borderopacity="0.25"
     inkscape:showpageshadow="2"
     inkscape:pageopacity="0.0"
     inkscape:pagecheckerboard="0"
     inkscape:deskcolor="#d1d1d1"
     inkscape:zoom="1.5996094"
     inkscape:cx="160.66422"
     inkscape:cy="256.31257"
     inkscape:window-width="2192"
     inkscape:window-height="1173"
     inkscape:window-x="1920"
     inkscape:window-y="0"
     inkscape:window-maximized="1"
     inkscape:current-layer="svg1" />
  <!--!Font Awesome Free 6.7.2 by @fontawesome - https://fontawesome.com License - https://fontawesome.com/license/free Copyright 2024 Fonticons, Inc.-->
  <path
     d="m 255.99518,48.0125 a 48,48 0 1 1 96,0 48,48 0 1 1 -96,0 z m -33.5,151.3 c -1,0.4 -1.9,0.8 -2.9,1.2 l -8,3.5 c -16.4,7.3 -29,21.2 -34.7,38.2 l -2.6,7.8 c -5.6,16.8 -23.7,25.8 -40.5,20.2 -16.8,-5.6 -25.8,-23.7 -20.2,-40.5 l 2.6,-7.8 c 11.4,-34.1 36.6,-61.9 69.4,-76.5 l 8,-3.5 c 20.8,-9.2 43.3,-14 66.1,-14 44.6,0 84.8,26.8 101.9,67.9 l 15.4,36.9 21.4,10.7 c 15.8,7.9 22.2,27.1 14.3,42.9 -7.9,15.8 -27.1,22.2 -42.9,14.3 l -26.8,-13.3 c -10.3,-5.2 -18.4,-13.8 -22.8,-24.5 l -9.6,-23 -19.3,65.5 49.5,54 c 5.4,5.9 9.2,13 11.2,20.8 l 23,92.1 c 4.3,17.1 -6.1,34.5 -23.3,38.8 -17.2,4.3 -34.5,-6.1 -38.8,-23.3 l -22,-88.1 -70.7,-77.1 c -14.8,-16.1 -20.3,-38.6 -14.7,-59.7 l 16.9,-63.5 z m -57.8,198.7 25,-62.4 c 2.1,3 4.5,5.8 7,8.6 l 40.7,44.4 -14.5,36.2 c -2.4,6 -6,11.5 -10.6,16.1 l -61.7,61.7 c -12.5,12.5 -32.8,12.5 -45.3,0 -12.499998,-12.5 -12.499998,-32.8 0,-45.3 z"
     id="path1"
     style="fill:#ffffff" />
</svg>
