<?xml version="1.0" encoding="UTF-8" standalone="no"?>
<svg
   id="svg1"
   sodipodi:docname="rotate_cw_icon_inverted.svg"
   viewBox="0 0 512 512"
   sodipodi:version="0.32"
   _SVGFile__filename="oldscale/actions/14_rotate.svg"
   version="1.0"
   y="0"
   x="0"
   inkscape:version="1.4 (e7c3feb100, 2024-10-09)"
   width="512"
   height="512"
   xmlns:inkscape="http://www.inkscape.org/namespaces/inkscape"
   xmlns:sodipodi="http://sodipodi.sourceforge.net/DTD/sodipodi-0.dtd"
   xmlns="http://www.w3.org/2000/svg"
   xmlns:svg="http://www.w3.org/2000/svg"
   xmlns:rdf="http://www.w3.org/1999/02/22-rdf-syntax-ns#"
   xmlns:cc="http://creativecommons.org/ns#"
   xmlns:dc="http://purl.org/dc/elements/1.1/">
  <defs
     id="defs1" />
  <sodipodi:namedview
     id="base"
     bordercolor="#666666"
     inkscape:pageshadow="2"
     inkscape:window-y="0"
     pagecolor="#ffffff"
     inkscape:window-height="1173"
     inkscape:zoom="0.52193079"
     inkscape:window-x="1920"
     borderopacity="1.0"
     inkscape:current-layer="g1089"
     inkscape:cx="7.6638514"
     inkscape:cy="419.59586"
     inkscape:window-width="2192"
     inkscape:pageopacity="0.0000000"
     inkscape:showpageshadow="2"
     inkscape:pagecheckerboard="true"
     inkscape:deskcolor="#d1d1d1"
     inkscape:window-maximized="1" />
  <g
     id="g1089"
     transform="matrix(-2.2258158,0,0,2.2258158,35.942755,-59.204556)"
     style="stroke:none">
    <path
       id="path1725"
       sodipodi:nodetypes="cccccccccccc"
       style="color:#000000;fill:none;stroke:none;stroke-width:8.125;stroke-linecap:round;stroke-linejoin:round"
       d="m 25.063,4.6882 -15.618,15.475 15.618,15.438 v -9.622 c 0.379,-0.05 0.715,-0.216 1.113,-0.216 7,0 12.674,5.711 12.674,12.71 0,3.314 -1.329,6.287 -3.411,8.545 l 8.294,8.294 c 4.201,-4.38 6.822,-10.291 6.822,-16.839 0,-13.464 -10.915,-24.414 -24.379,-24.414 -0.379,0 -0.739,0.086 -1.113,0.108 V 4.6884 Z" />
    <path
       id="path1091"
       sodipodi:nodetypes="cccccccccccc"
       style="color:#000000;fill:#ffffff;fill-rule:evenodd;stroke:#ffffff;stroke-width:13.374;stroke-linecap:round;stroke-linejoin:round;stroke-opacity:1"
       d="m -77.737043,33.28545 66.840263,66.228261 -66.840263,66.069919 v -41.17922 c -1.622004,-0.21398 -3.059986,-0.92441 -4.763301,-0.92441 -29.957866,0 -54.240846,24.44134 -54.240846,54.39491 0,14.18291 5.68771,26.90644 14.59803,36.56999 l -35.49577,35.49579 c -17.979,-18.74507 -29.19608,-44.04234 -29.19608,-72.06578 0,-57.62179 46.71286,-104.484447 104.334666,-104.484447 1.622004,0 3.162696,0.368053 4.763301,0.462207 V 33.286306 Z" />
  </g>
  <metadata
     id="metadata1">
    <rdf:RDF>
      <cc:Work>
        <dc:format>image/svg+xml</dc:format>
        <dc:type
           rdf:resource="http://purl.org/dc/dcmitype/StillImage" />
        <cc:license
           rdf:resource="http://creativecommons.org/publicdomain/zero/1.0/" />
        <dc:publisher>
          <cc:Agent
             rdf:about="http://openclipart.org/">
            <dc:title>Openclipart</dc:title>
          </cc:Agent>
        </dc:publisher>
      </cc:Work>
      <cc:License
         rdf:about="http://creativecommons.org/publicdomain/zero/1.0/">
        <cc:permits
           rdf:resource="http://creativecommons.org/ns#Reproduction" />
        <cc:permits
           rdf:resource="http://creativecommons.org/ns#Distribution" />
        <cc:permits
           rdf:resource="http://creativecommons.org/ns#DerivativeWorks" />
      </cc:License>
    </rdf:RDF>
  </metadata>
</svg>
