<?xml version="1.0" encoding="UTF-8" standalone="no"?>
<svg
   id="svg1"
   sodipodi:docname="rotate_cw_icon_inverted.svg"
   viewBox="0 0 512 512"
   sodipodi:version="0.32"
   _SVGFile__filename="oldscale/actions/14_rotate.svg"
   version="1.0"
   y="0"
   x="0"
   inkscape:version="1.4 (e7c3feb100, 2024-10-09)"
   width="512"
   height="512"
   xmlns:inkscape="http://www.inkscape.org/namespaces/inkscape"
   xmlns:sodipodi="http://sodipodi.sourceforge.net/DTD/sodipodi-0.dtd"
   xmlns="http://www.w3.org/2000/svg"
   xmlns:svg="http://www.w3.org/2000/svg"
   xmlns:rdf="http://www.w3.org/1999/02/22-rdf-syntax-ns#"
   xmlns:cc="http://creativecommons.org/ns#"
   xmlns:dc="http://purl.org/dc/elements/1.1/">
  <defs
     id="defs1" />
  <sodipodi:namedview
     id="base"
     bordercolor="#666666"
     inkscape:pageshadow="2"
     inkscape:window-y="0"
     pagecolor="#ffffff"
     inkscape:window-height="1173"
     inkscape:zoom="0.52193079"
     inkscape:window-x="1920"
     borderopacity="1.0"
     inkscape:current-layer="g1089"
     inkscape:cx="9.5798142"
     inkscape:cy="419.59586"
     inkscape:window-width="2192"
     inkscape:pageopacity="0.0000000"
     inkscape:showpageshadow="2"
     inkscape:pagecheckerboard="true"
     inkscape:deskcolor="#d1d1d1"
     inkscape:window-maximized="1" />
  <g
     id="g1089"
     transform="matrix(-2.2258158,0,0,2.2258158,35.942755,-59.204556)"
     style="stroke:none">
    <path
       id="path1725"
       sodipodi:nodetypes="cccccccccccc"
       style="color:#000000;fill:none;stroke:none;stroke-width:8.125;stroke-linecap:round;stroke-linejoin:round"
       d="m 25.063,4.6882 -15.618,15.475 15.618,15.438 v -9.622 c 0.379,-0.05 0.715,-0.216 1.113,-0.216 7,0 12.674,5.711 12.674,12.71 0,3.314 -1.329,6.287 -3.411,8.545 l 8.294,8.294 c 4.201,-4.38 6.822,-10.291 6.822,-16.839 0,-13.464 -10.915,-24.414 -24.379,-24.414 -0.379,0 -0.739,0.086 -1.113,0.108 V 4.6884 Z" />
    <path
       id="path1091"
       sodipodi:nodetypes="cccccccccccc"
       style="color:#000000;fill:#ffffff;fill-rule:evenodd;stroke:#ffffff;stroke-width:13.374;stroke-linecap:round;stroke-linejoin:round;stroke-opacity:1"
       d="m -50.419661,42.445221 47.421601,81.271119 -81.66289,46.51911 10.657967,-39.77607 c -1.511354,-0.6265 -2.716465,-1.6849 -4.361741,-2.12575 -28.937076,-7.75366 -58.718516,9.56996 -66.471076,38.50289 -3.6708,13.69964 -1.46999,27.46171 4.63561,39.10214 l -43.47327,25.09932 c -12.5148,-22.75965 -16.80225,-50.09813 -9.54925,-77.1667 14.91362,-55.658372 72.16372,-88.834045 127.822112,-73.920424 1.566736,0.419805 2.959671,1.174078 4.481368,1.67929 l 10.499347,-39.184098 z" />
  </g>
  <metadata
     id="metadata1">
    <rdf:RDF>
      <cc:Work>
        <dc:format>image/svg+xml</dc:format>
        <dc:type
           rdf:resource="http://purl.org/dc/dcmitype/StillImage" />
        <cc:license
           rdf:resource="http://creativecommons.org/publicdomain/zero/1.0/" />
        <dc:publisher>
          <cc:Agent
             rdf:about="http://openclipart.org/">
            <dc:title>Openclipart</dc:title>
          </cc:Agent>
        </dc:publisher>
      </cc:Work>
      <cc:License
         rdf:about="http://creativecommons.org/publicdomain/zero/1.0/">
        <cc:permits
           rdf:resource="http://creativecommons.org/ns#Reproduction" />
        <cc:permits
           rdf:resource="http://creativecommons.org/ns#Distribution" />
        <cc:permits
           rdf:resource="http://creativecommons.org/ns#DerivativeWorks" />
      </cc:License>
    </rdf:RDF>
  </metadata>
</svg>
