<?xml version="1.0" encoding="UTF-8" standalone="no"?>
<!-- Uploaded to: SVG Repo, www.svgrepo.com, Generator: SVG Repo Mixer Tools -->

<svg
   fill="#000000"
   height="512"
   width="512"
   version="1.1"
   id="Capa_1"
   viewBox="0 0 185.74464 185.74464"
   xml:space="preserve"
   sodipodi:docname="sword_svgrepo.svg"
   inkscape:version="1.4 (e7c3feb100, 2024-10-09)"
   xmlns:inkscape="http://www.inkscape.org/namespaces/inkscape"
   xmlns:sodipodi="http://sodipodi.sourceforge.net/DTD/sodipodi-0.dtd"
   xmlns="http://www.w3.org/2000/svg"
   xmlns:svg="http://www.w3.org/2000/svg"><defs
   id="defs3" /><sodipodi:namedview
   id="namedview3"
   pagecolor="#ffffff"
   bordercolor="#000000"
   borderopacity="0.25"
   inkscape:showpageshadow="2"
   inkscape:pageopacity="0.0"
   inkscape:pagecheckerboard="0"
   inkscape:deskcolor="#d1d1d1"
   inkscape:zoom="1.02375"
   inkscape:cx="256.89866"
   inkscape:cy="178.75458"
   inkscape:window-width="2192"
   inkscape:window-height="1173"
   inkscape:window-x="1920"
   inkscape:window-y="0"
   inkscape:window-maximized="1"
   inkscape:current-layer="Capa_1" />
<g
   id="g3"
   transform="matrix(0.64007264,0,0,0.64000207,-0.01024116,4.0176765e-5)"
   style="fill:#ffffff">
	<path
   d="m 63.951,243.575 c -1.945,-3.578 -4.401,-6.907 -7.363,-9.869 -3.106,-3.102 -6.626,-5.633 -10.4,-7.63 -4.51,-2.387 -0.945,-7.5 -0.945,-7.5 4.616,-7.023 8.825,-14.079 12.305,-20.226 L 34.185,175.006 H 11.504 c -4.362,0 -7.898,-3.539 -7.898,-7.902 0,-4.361 3.536,-7.9 7.898,-7.9 h 25.947 c 2.1,0 4.107,0.832 5.588,2.312 l 85.379,85.291 c 1.483,1.483 2.315,3.495 2.315,5.589 v 26.073 c 0,4.365 -3.537,7.897 -7.9,7.897 -4.367,0 -7.904,-3.531 -7.904,-7.897 v -22.798 l -23.27,-23.24 c -6.281,3.707 -13.582,8.252 -20.816,13.25 -0.001,-0.002 -4.145,2.948 -6.892,-2.106 z"
   id="path1"
   style="fill:#ffffff" />
	<path
   d="m 26.61,237.102 c -7.106,0 -13.784,2.764 -18.812,7.784 -5.019,5.015 -7.782,11.686 -7.782,18.778 0,7.097 2.764,13.762 7.782,18.776 5.027,5.016 11.706,7.783 18.812,7.785 7.102,0 13.781,-2.77 18.804,-7.785 5.023,-5.015 7.79,-11.682 7.79,-18.776 0,-7.093 -2.768,-13.764 -7.79,-18.778 -5.022,-5.02 -11.702,-7.784 -18.804,-7.784 z"
   id="path2"
   style="fill:#ffffff" />
	<path
   d="m 100.985,182.318 c -3.502,3.499 -9.232,3.499 -12.734,10e-4 l -8.81,-8.801 c -3.502,-3.498 -3.502,-9.223 0,-12.721 L 229.832,10.564 c 3.502,-3.498 10.401,-6.727 15.33,-7.175 l 36.862,-3.352 c 4.93,-0.448 8.596,3.218 8.148,8.148 l -3.346,36.791 c -0.448,4.93 -3.68,11.825 -7.182,15.324 l -150.4,150.251 c -3.502,3.498 -9.232,3.498 -12.734,0 l -8.822,-8.813 c -3.502,-3.498 -3.502,-9.223 0,-12.722 L 233.608,63.213 c 1.854,-1.848 1.856,-4.852 0.003,-6.702 -1.848,-1.853 -4.853,-1.853 -6.709,-0.002 z"
   id="path3"
   style="fill:#ffffff" />
</g>
</svg>
