<?xml version="1.0" encoding="UTF-8" standalone="no"?>
<svg
   viewBox="0 0 512 512"
   version="1.1"
   id="svg1"
   sodipodi:docname="volume_high_solid_fontawesome_modified.svg"
   width="512"
   height="512"
   inkscape:version="1.4 (e7c3feb100, 2024-10-09)"
   xmlns:inkscape="http://www.inkscape.org/namespaces/inkscape"
   xmlns:sodipodi="http://sodipodi.sourceforge.net/DTD/sodipodi-0.dtd"
   xmlns="http://www.w3.org/2000/svg"
   xmlns:svg="http://www.w3.org/2000/svg">
  <defs
     id="defs1" />
  <sodipodi:namedview
     id="namedview1"
     pagecolor="#ffffff"
     bordercolor="#000000"
     borderopacity="0.25"
     inkscape:showpageshadow="2"
     inkscape:pageopacity="0.0"
     inkscape:pagecheckerboard="true"
     inkscape:deskcolor="#d1d1d1"
     inkscape:zoom="0.70710678"
     inkscape:cx="-108.89444"
     inkscape:cy="168.29141"
     inkscape:window-width="2192"
     inkscape:window-height="1173"
     inkscape:window-x="1920"
     inkscape:window-y="0"
     inkscape:window-maximized="1"
     inkscape:current-layer="svg1" />
  <!--!Font Awesome Free 6.7.2 by @fontawesome - https://fontawesome.com License - https://fontawesome.com/license/free Copyright 2025 Fonticons, Inc.-->
  <path
     d="m 445.26918,115.74497 c 40.65852,33.12917 66.72893,83.66997 66.72893,140.23425 0,56.56429 -26.07041,107.1051 -66.72893,140.23426 -9.69404,7.90583 -23.9057,6.39996 -31.81153,-3.29409 -7.90583,-9.69406 -6.39994,-23.9057 3.29409,-31.81153 30.58802,-24.84687 50.07022,-62.68189 50.07022,-105.12864 0,-42.44674 -19.4822,-80.28176 -50.07022,-105.22275 -9.69403,-7.90582 -11.1058,-22.11748 -3.29409,-31.81153 7.81171,-9.69404 22.11749,-11.10579 31.81153,-3.29408 z m -56.94075,70.11712 c 20.23514,16.56459 33.3174,41.78794 33.3174,70.11713 0,28.32921 -13.08226,53.55255 -33.3174,70.11713 -9.69405,7.90584 -23.90571,6.39995 -31.81153,-3.29408 -7.90582,-9.69406 -6.39996,-23.90571 3.2941,-31.81154 10.16463,-8.28229 16.65869,-20.89396 16.65869,-35.01151 0,-14.11753 -6.49406,-26.72921 -16.65869,-35.10562 -9.69406,-7.90582 -11.10581,-22.11748 -3.2941,-31.81153 7.81171,-9.69403 22.11748,-11.1058 31.81153,-3.29409 z M 283.38804,47.792533 c 10.82343,4.894082 17.78809,15.623415 17.78809,27.48215 V 436.68378 c 0,11.85873 -6.96466,22.58805 -17.78809,27.48213 -10.82346,4.89409 -23.52925,2.91764 -32.37624,-4.98819 L 124.04803,346.33151 H 60.236739 c -33.223284,0 -60.234849,-27.01158 -60.234849,-60.23486 V 225.8618 c 0,-33.22328 27.011565,-60.23485 60.234849,-60.23485 H 124.04803 L 251.0118,52.780732 c 8.84699,-7.905823 21.55278,-9.788162 32.37624,-4.988199 z"
     id="path1"
     style="fill:#ffffff;stroke-width:0.94117"
     sodipodi:nodetypes="cscscscscccscscscscccsssccssssccc" />
</svg>
